<svg width="26" height="26" viewBox="0 0 26 26" fill="none" xmlns="http://www.w3.org/2000/svg">
    <path d="M22.0591 21.6018C26.9564 16.7044 26.9565 8.76431 22.0591 3.86698C17.1618 -1.03034 9.2217 -1.03034 4.3243 3.86699C-0.573004 8.76431 -0.573004 16.7044 4.3243 21.6018C9.2217 26.4991 17.1618 26.4991 22.0591 21.6018Z"
          fill="#6496DC"/>
    <path d="M10.4977 16.2395L18.6189 8.11823C18.8196 7.91729 19.0579 7.75788 19.3202 7.64912C19.5825 7.54036 19.8637 7.48438 20.1477 7.48438C20.4317 7.48438 20.7129 7.54036 20.9752 7.64912C21.2375 7.75788 21.4758 7.91729 21.6765 8.11823H21.6812C22.0857 8.5244 22.3128 9.07428 22.3128 9.6475C22.3128 10.2207 22.0857 10.7706 21.6812 11.1768L16.6223 16.2395C15.8097 17.0508 14.7083 17.5064 13.56 17.5064C12.4117 17.5064 11.3104 17.0508 10.4977 16.2395Z"
          fill="white"/>
    <path d="M15.8856 9.22805L7.76431 17.3493C7.56351 17.5503 7.32511 17.7097 7.06271 17.8185C6.80031 17.9272 6.51911 17.9832 6.23501 17.9832C5.95101 17.9832 5.66971 17.9272 5.40731 17.8185C5.14491 17.7097 4.90651 17.5503 4.70571 17.3493C4.50481 17.1485 4.34531 16.9101 4.23661 16.6477C4.12781 16.3853 4.07181 16.1041 4.07181 15.82C4.07181 15.536 4.12781 15.2547 4.23661 14.9923C4.34531 14.7299 4.50481 14.4915 4.70571 14.2907L9.76471 9.23181C10.5767 8.42117 11.677 7.96555 12.8243 7.96484C13.9717 7.96414 15.0726 8.4184 15.8856 9.22805Z"
          fill="white"/>
</svg>
