<svg width="20" height="13" viewBox="0 0 20 12" fill="none" xmlns="http://www.w3.org/2000/svg">
    <path d="M12.7598 1.27979H7.31177V10.9439H12.7598V1.27979Z" fill="#FF5F00"></path>
    <path d="M7.67025 6.11111C7.67025 4.12144 8.60215 2.41602 10.0358 1.27907C8.96057 0.497416 7.59856 0 6.16487 0C2.7957 0 0 2.77132 0 6.11111C0 9.4509 2.7957 12.2222 6.16487 12.2222C7.59856 12.2222 8.96057 11.7248 9.96415 10.9431C8.60215 9.8062 7.67025 8.10077 7.67025 6.11111Z"
          fill="#EB001B"></path>
    <path d="M20 6.11111C20 9.52196 17.2043 12.2222 13.8352 12.2222C12.4015 12.2222 11.0395 11.7248 10.0359 10.9431C11.4696 9.8062 12.4015 8.10077 12.4015 6.11111C12.4015 4.12144 11.4696 2.41602 10.0359 1.27907C11.0395 0.497416 12.4015 0 13.8352 0C17.276 0 20 2.77132 20 6.11111Z"
          fill="#F79E1B"></path>
</svg>