<svg width="35" height="10" viewBox="0 0 35 10" fill="none" xmlns="http://www.w3.org/2000/svg">
    <path fill-rule="evenodd" clip-rule="evenodd"
          d="M9.4314 1.90259e-07V0.004367C9.42707 0.004367 8.06428 1.66581e-07 7.70086 1.31441C7.36774 2.51965 6.42892 5.84716 6.40297 5.93886H6.14339C6.14339 5.93886 5.18294 2.53712 4.84549 1.31004C4.48208 -0.00436666 3.11496 1.90259e-07 3.11496 1.90259e-07H0V10H3.11496V4.06114H3.24475H3.37454L5.19159 10H7.35476L9.17182 4.0655H9.4314V10H12.5464V1.90259e-07H9.4314Z"
          fill="#4DB45E"></path>
    <path fill-rule="evenodd" clip-rule="evenodd"
          d="M20.8097 0C20.8097 0 19.8968 0.0829694 19.4685 1.04803L17.2621 5.93886H17.0025V0H13.8876V10H16.8295C16.8295 10 17.7856 9.91266 18.2139 8.95196L20.3771 4.06114H20.6366V10H23.7516V0H20.8097Z"
          fill="#4DB45E"></path>
    <path fill-rule="evenodd" clip-rule="evenodd"
          d="M25.136 4.5415V10H28.2509V6.81225H31.6255C33.0964 6.81225 34.3424 5.86465 34.8053 4.5415H25.136Z"
          fill="#4DB45E"></path>
    <path fill-rule="evenodd" clip-rule="evenodd"
          d="M31.6254 0H24.699C25.0451 1.90393 26.4598 3.43231 28.2898 3.93013C28.7052 4.04367 29.1421 4.1048 29.5921 4.1048H34.9307C34.9783 3.87773 35 3.64629 35 3.40611C35 1.52402 33.4901 0 31.6254 0Z"
          fill="url(#paint0_linear)"></path>
    <defs>
        <linearGradient id="paint0_linear" x1="24.6998" y1="2.0524" x2="35" y2="2.0524" gradientUnits="userSpaceOnUse">
            <stop offset="0.3" stop-color="#00B4E6"></stop>
            <stop offset="1" stop-color="#088CCB"></stop>
        </linearGradient>
    </defs>
</svg>