<svg width="59" height="34" viewBox="0 0 59 34" fill="none" xmlns="http://www.w3.org/2000/svg">
    <path d="M59 12.6182V21.0948H56.0865V15.1503H53.2807V21.0948H50.3672V12.6182H59Z" fill="#1C1637"></path>
    <path d="M48.9829 17.3381C48.9829 19.8065 46.979 21.4351 44.281 21.4351C41.4897 21.4351 39.4548 19.7108 39.4548 15.8031C39.4548 12.4503 41.5416 9.68644 44.6312 9.63329C45.9844 9.63329 48.8917 9.56738 48.8917 9.56738L47.582 12.0336C47.582 12.0336 45.2653 12.0379 44.9586 12.0379C43.6262 12.0379 42.414 13.0669 42.244 14.4743C42.9527 13.794 43.8935 13.3985 45.0353 13.3985C47.5033 13.4007 48.9829 14.9506 48.9829 17.3381ZM45.9927 17.3381C45.9927 16.2305 45.2985 15.582 44.2955 15.582C43.2615 15.582 42.5694 16.2453 42.5694 17.353C42.5694 18.3969 43.2636 19.1559 44.2955 19.1559C45.3751 19.1581 45.9927 18.3353 45.9927 17.3381Z"
          fill="#1C1637"></path>
    <path d="M37.1444 18.533C37.1444 18.533 36.4398 18.939 35.3892 19.0177C34.1791 19.0517 33.1036 18.2885 33.1036 16.9278C33.1036 15.6011 34.0547 14.84 35.3582 14.84C36.158 14.84 37.2169 15.397 37.2169 15.397C37.2169 15.397 37.9919 13.9704 38.3919 13.2603C37.6583 12.7012 36.6782 12.395 35.5405 12.395C32.6684 12.395 30.4429 14.2745 30.4429 16.9129C30.4429 19.5854 32.5337 21.4202 35.5405 21.3649C36.3818 21.333 37.5402 21.0375 38.2468 20.5825L37.1444 18.533Z"
          fill="#1C1637"></path>
    <path d="M0 7.40088L4.02631 14.7613V19.2473L0.00621663 26.595L0 7.40088Z" fill="#5B57A2"></path>
    <path d="M15.4565 12.0825L19.228 9.71829L26.947 9.71191L15.4565 16.9129V12.0825Z" fill="#D90751"></path>
    <path d="M15.436 7.3583L15.4567 17.0999L11.4221 14.5657V0L15.436 7.3583Z" fill="#FAB718"></path>
    <path d="M26.9471 9.71186L19.2281 9.71823L15.436 7.3583L11.4221 0L26.9471 9.71186Z" fill="#ED6F26"></path>
    <path d="M15.4567 26.6353V21.9069L11.4221 19.4194L11.4242 34L15.4567 26.6353Z" fill="#63B22F"></path>
    <path d="M19.2198 24.2924L4.02631 14.7613L0 7.40088L26.9325 24.2839L19.2198 24.2924Z" fill="#1487C9"></path>
    <path d="M11.4241 34L15.4566 26.6354L19.2197 24.2924L26.9325 24.2839L11.4241 34Z" fill="#017F36"></path>
    <path d="M0.00610352 26.5949L11.453 19.4194L7.6049 17.0063L4.02619 19.2472L0.00610352 26.5949Z"
          fill="#984995"></path>
</svg>