<svg width="23" height="14" viewBox="0 0 23 14" fill="none" xmlns="http://www.w3.org/2000/svg"><g clip-path="url(#clip0_248_372)"><path d="M4.42072 0.000244141H10.055C10.8415 0.000244141 11.3307 0.635201 11.1472 1.41679L8.52404 12.5718C8.33892 13.3507 7.55146 13.9862 6.76442 13.9862H1.13068C0.345286 13.9862 -0.144986 13.3507 0.038488 12.5718L2.66275 1.41679C2.84622 0.635201 3.63327 0.000244141 4.42072 0.000244141Z" fill="#E21836"></path><path d="M9.58639 0.000244141H16.0657C16.852 0.000244141 16.4974 0.635201 16.3125 1.41679L13.6897 12.5718C13.5057 13.3507 13.5631 13.9862 12.7751 13.9862H6.2958C5.50779 13.9862 5.02013 13.3507 5.20525 12.5718L7.82786 1.41679C8.01408 0.635201 8.79948 0.000244141 9.58639 0.000244141Z" fill="#00447C"></path><path d="M15.8088 0.000244141H21.4431C22.2307 0.000244141 22.7198 0.635201 22.5348 1.41679L19.9121 12.5718C19.727 13.3507 18.939 13.9862 18.1515 13.9862H12.5198C11.7318 13.9862 11.2431 13.3507 11.4276 12.5718L14.0508 1.41679C14.2343 0.635201 15.0208 0.000244141 15.8088 0.000244141Z" fill="#007B84"></path><path d="M5.89209 3.57487C5.31269 3.58072 5.14158 3.57487 5.08692 3.56209C5.06591 3.66097 4.67493 5.44737 4.67383 5.44886C4.58965 5.81028 4.5284 6.06791 4.32034 6.23426C4.20223 6.33097 4.06435 6.37763 3.9045 6.37763C3.64755 6.37763 3.49786 6.25127 3.47273 6.01159L3.46792 5.9293C3.46792 5.9293 3.5462 5.44519 3.5462 5.44247C3.5462 5.44247 3.95655 3.81454 4.03002 3.59936C4.03387 3.58711 4.03497 3.58072 4.03593 3.57487C3.23721 3.58181 3.09562 3.57487 3.08587 3.56209C3.08051 3.57963 3.06074 3.68056 3.06074 3.68056L2.64174 5.51538L2.60576 5.67099L2.53613 6.17999C2.53613 6.33098 2.56607 6.45421 2.62567 6.55841C2.81656 6.88881 3.36108 6.93832 3.66911 6.93832C4.066 6.93832 4.43831 6.8548 4.6899 6.70232C5.12661 6.44673 5.24087 6.04723 5.34277 5.69221L5.39001 5.51007C5.39001 5.51007 5.81272 3.81931 5.88454 3.59936C5.88729 3.58711 5.88839 3.58072 5.89209 3.57487ZM7.33032 4.93883C7.22842 4.93883 7.0422 4.96332 6.87493 5.04452C6.81423 5.0754 6.75683 5.11104 6.69626 5.14654L6.75092 4.95107L6.72098 4.91816C6.36626 4.9893 6.28688 4.99882 5.95921 5.04452L5.93174 5.06261C5.8937 5.37506 5.85992 5.60997 5.71888 6.22411C5.66518 6.45046 5.60943 6.67898 5.55353 6.90478L5.56864 6.93348C5.90441 6.91593 6.00631 6.91593 6.29814 6.92069L6.32176 6.89525C6.35884 6.70713 6.36365 6.66306 6.44577 6.28206C6.48436 6.10142 6.56484 5.70451 6.60453 5.56318C6.67745 5.52972 6.74941 5.4968 6.81808 5.4968C6.98164 5.4968 6.96173 5.63813 6.95541 5.69444C6.9484 5.78898 6.8888 6.09775 6.82769 6.36286L6.7869 6.53398C6.75848 6.66034 6.7273 6.78317 6.69887 6.90845L6.71123 6.93348C7.0422 6.91593 7.14314 6.91593 7.42577 6.92069L7.459 6.89525C7.51009 6.60144 7.52506 6.52282 7.6157 6.09503L7.66129 5.89848C7.74987 5.5138 7.79436 5.31874 7.72735 5.15987C7.65648 4.98181 7.48647 4.93883 7.33032 4.93883ZM8.93699 5.34158C8.76107 5.37504 8.64887 5.39735 8.53735 5.41177C8.4268 5.42932 8.319 5.44523 8.14898 5.46863L8.13552 5.48073L8.12316 5.49039C8.10545 5.61581 8.09309 5.72422 8.0696 5.85167C8.04969 5.98348 8.01907 6.13324 7.96921 6.34843C7.93062 6.51315 7.91071 6.57055 7.88874 6.6285C7.86731 6.68644 7.84369 6.74276 7.8003 6.90476L7.81046 6.91972L7.81897 6.93346C7.97787 6.92598 8.08183 6.92068 8.18867 6.91972C8.29538 6.91592 8.40593 6.91972 8.57704 6.92068L8.59201 6.90857L8.60808 6.89524C8.6328 6.74915 8.63651 6.70984 8.65161 6.63856C8.66658 6.56212 8.6924 6.45629 8.75571 6.17364C8.78565 6.04088 8.81902 5.90853 8.85006 5.77305C8.88233 5.63811 8.91611 5.50522 8.94825 5.37246L8.94344 5.35641L8.93699 5.34158ZM8.94074 4.79855C8.78088 4.7051 8.50032 4.73476 8.31148 4.86384C8.1232 4.99034 8.10178 5.16989 8.26109 5.26457C8.41819 5.35543 8.69986 5.32836 8.88704 5.19819C9.07491 5.06896 9.09839 4.89105 8.94074 4.79855ZM9.90748 6.96275C10.2309 6.96275 10.5624 6.87447 10.8119 6.61249C11.0039 6.40002 11.092 6.0839 11.1224 5.95373C11.2217 5.52226 11.1444 5.32081 11.0473 5.19812C10.8998 5.01109 10.6392 4.9511 10.3688 4.9511C10.2062 4.9511 9.8189 4.96702 9.51636 5.24328C9.2991 5.44255 9.19871 5.71297 9.13815 5.97223C9.07704 6.23638 9.00672 6.71192 9.44824 6.88889C9.58448 6.94683 9.78086 6.96275 9.90748 6.96275ZM9.88221 5.99195C9.95678 5.66522 10.0448 5.391 10.2695 5.391C10.4455 5.391 10.4583 5.59503 10.38 5.92285C10.366 5.99562 10.3018 6.26617 10.2148 6.38138C10.1541 6.4664 10.0823 6.51795 10.0029 6.51795C9.9793 6.51795 9.83881 6.51795 9.83662 6.31133C9.83552 6.20932 9.85653 6.10512 9.88221 5.99195ZM11.9309 6.92073L11.9562 6.89529C11.992 6.70717 11.9979 6.66297 12.0773 6.2821C12.117 6.10146 12.1991 5.70455 12.2377 5.56322C12.3108 5.52962 12.3815 5.4967 12.4524 5.4967C12.6148 5.4967 12.595 5.63803 12.5886 5.69435C12.5827 5.78902 12.5231 6.09765 12.4609 6.36276L12.4223 6.53388C12.3928 6.66038 12.3606 6.78308 12.3322 6.90849L12.3446 6.93352C12.6766 6.91597 12.7737 6.91597 13.058 6.92073L13.0923 6.89529C13.1422 6.60135 13.1556 6.52273 13.249 6.09507L13.2935 5.89838C13.3825 5.51371 13.4276 5.31878 13.3616 5.15991C13.2887 4.98186 13.1176 4.93887 12.9636 4.93887C12.8616 4.93887 12.6744 4.96322 12.5081 5.04456C12.4487 5.07544 12.3891 5.11094 12.3306 5.14658L12.3815 4.95111L12.3542 4.91806C11.9996 4.98934 11.9186 4.99886 11.5913 5.04456L11.5662 5.06265C11.5265 5.3751 11.4942 5.60987 11.3532 6.22416C11.2995 6.4505 11.2437 6.67902 11.188 6.90482L11.2029 6.93352C11.5392 6.91597 11.6396 6.91597 11.9309 6.92073ZM14.3707 6.93345C14.3915 6.83252 14.5156 6.23429 14.5167 6.23429C14.5167 6.23429 14.6223 5.79534 14.6287 5.77943C14.6287 5.77943 14.662 5.73372 14.6952 5.71563H14.7441C15.2054 5.71563 15.7263 5.71563 16.1346 5.41815C16.4124 5.21412 16.6023 4.91282 16.687 4.54665C16.709 4.45687 16.7252 4.3501 16.7252 4.24332C16.7252 4.10308 16.6968 3.96433 16.6147 3.85592C16.4065 3.56742 15.9919 3.56211 15.5133 3.55994C15.5118 3.55994 15.2773 3.56211 15.2773 3.56211C14.6647 3.56959 14.419 3.56742 14.3181 3.55518C14.3096 3.59938 14.2935 3.678 14.2935 3.678C14.2935 3.678 14.074 4.68539 14.074 4.68703C14.074 4.68703 13.5489 6.82885 13.5242 6.92978C14.0591 6.92338 14.2784 6.92338 14.3707 6.93345ZM14.7773 5.14393C14.7773 5.14393 15.0106 4.13858 15.0095 4.14239L15.0171 4.09084L15.0204 4.05152L15.1136 4.06105C15.1136 4.06105 15.5948 4.10199 15.6061 4.10308C15.796 4.17585 15.8743 4.36343 15.8197 4.60827C15.7698 4.83203 15.6233 5.02015 15.435 5.11101C15.2799 5.188 15.09 5.19439 14.8943 5.19439H14.7677L14.7773 5.14393ZM16.2301 6.01057C16.1684 6.27092 16.0975 6.74646 16.5369 6.91594C16.6769 6.97498 16.8025 6.99252 16.93 6.98613C17.0648 6.97892 17.1896 6.912 17.3052 6.81569C17.2948 6.85528 17.2843 6.89486 17.2739 6.93458L17.2938 6.96001C17.6098 6.94682 17.7079 6.94682 18.0502 6.9494L18.0813 6.92601C18.1313 6.63492 18.1784 6.35226 18.3083 5.79538C18.3716 5.52864 18.4348 5.26448 18.4997 4.99883L18.4896 4.96959C18.1361 5.03447 18.0416 5.04834 17.7016 5.09609L17.6757 5.1169C17.6723 5.14397 17.6687 5.16995 17.6654 5.19593C17.6126 5.11132 17.5359 5.03909 17.4177 4.99407C17.2665 4.93517 16.9114 5.01107 16.6061 5.28638C16.3916 5.48294 16.2886 5.75226 16.2301 6.01057ZM16.9725 6.02649C17.0481 5.70561 17.1351 5.43411 17.3603 5.43411C17.5027 5.43411 17.5777 5.56428 17.5624 5.78627C17.5504 5.84163 17.5373 5.89998 17.5218 5.96596C17.4993 6.06131 17.4748 6.15584 17.4511 6.25052C17.4269 6.31526 17.3987 6.37634 17.3678 6.41701C17.3099 6.49835 17.172 6.54882 17.0926 6.54882C17.0701 6.54882 16.9311 6.54882 16.9263 6.34587C16.9252 6.2448 16.9462 6.14075 16.9725 6.02649ZM20.8494 4.96699L20.8221 4.93611C20.4723 5.0063 20.409 5.01745 20.0876 5.06044L20.064 5.08383C20.0629 5.08764 20.0619 5.09349 20.0603 5.09879L20.0592 5.09349C19.82 5.64017 19.827 5.52224 19.6322 5.95261C19.6311 5.93303 19.6311 5.92078 19.63 5.89997L19.5813 4.96699L19.5507 4.93611C19.1843 5.0063 19.1756 5.01745 18.8372 5.06044L18.8109 5.08383C18.8071 5.09499 18.8071 5.10723 18.8049 5.12056L18.8071 5.12532C18.8494 5.33942 18.8393 5.29168 18.8817 5.62956C18.9015 5.79537 18.9279 5.96213 18.9476 6.12591C18.981 6.39999 18.9997 6.53493 19.0405 6.9532C18.8119 7.32672 18.7578 7.46805 18.5378 7.79586L18.5393 7.79913L18.3844 8.04179C18.3667 8.06737 18.3507 8.08491 18.3281 8.09239C18.3034 8.1045 18.2713 8.10668 18.2266 8.10668H18.1408L18.0132 8.52699L18.4509 8.53447C18.7079 8.53338 18.8694 8.41436 18.9563 8.2544L19.2315 7.78729H19.2271L19.2561 7.75438C19.4412 7.35964 20.8494 4.96699 20.8494 4.96699ZM16.23 10.4872H16.0444L16.7316 8.23583H16.9595L17.0319 8.00391L17.0389 8.26181C17.0304 8.42123 17.157 8.56256 17.4896 8.53916H17.8743L18.0067 8.10566H17.8619C17.7787 8.10566 17.7401 8.08485 17.7449 8.04023L17.7379 7.77784H17.0256V7.7792C16.7953 7.78396 16.1075 7.8011 15.9683 7.83783C15.7998 7.88081 15.6222 8.00731 15.6222 8.00731L15.692 7.77512H15.0256L14.8868 8.23583L14.1904 10.5216H14.0553L13.9227 10.9519H15.2499L15.2054 11.0954H15.8594L15.9028 10.9519H16.0863L16.23 10.4872ZM15.6855 8.69328C15.5788 8.72252 15.3802 8.81121 15.3802 8.81121L15.5568 8.23583H16.0863L15.9585 8.65505C15.9585 8.65505 15.795 8.66458 15.6855 8.69328ZM15.6957 9.51527C15.6957 9.51527 15.5294 9.53594 15.4199 9.56043C15.3121 9.5928 15.11 9.69482 15.11 9.69482L15.2923 9.09604H15.8245L15.6957 9.51527ZM15.399 10.4925H14.868L15.0219 9.98713H15.5514L15.399 10.4925ZM16.678 9.09604H17.4434L17.3334 9.44889H16.5578L16.4413 9.83465H17.12L16.6061 10.5514C16.5702 10.604 16.5379 10.6226 16.502 10.6375C16.4661 10.6555 16.4188 10.6768 16.3642 10.6768H16.1759L16.0465 11.0993H16.539C16.795 11.0993 16.9462 10.9839 17.0578 10.8325L17.4102 10.3548L17.4859 10.8399C17.5019 10.9307 17.5679 10.9839 17.6125 11.0046C17.6618 11.0291 17.7128 11.0711 17.7847 11.0774C17.8619 11.0806 17.9176 11.0832 17.9547 11.0832H18.1967L18.342 10.6104H18.2466C18.1918 10.6104 18.0974 10.6013 18.0813 10.5843C18.0653 10.5636 18.0653 10.5318 18.0566 10.4833L17.9799 9.99719H17.6655L17.8034 9.83465H18.5775L18.6966 9.44889H17.9799L18.0915 9.09604H18.806L18.9386 8.6609H16.8083L16.678 9.09604ZM10.2127 10.5907L10.3913 10.002H11.1256L11.2598 9.56414H10.5248L10.637 9.20177H11.3553L11.4883 8.77779H9.69121L9.56088 9.20177H9.96917L9.86026 9.56414H9.45088L9.3152 10.0095H9.72334L9.48521 10.7883C9.45308 10.8915 9.50032 10.9308 9.53026 10.9786C9.56088 11.0253 9.59192 11.0562 9.66168 11.0737C9.73365 11.0896 9.78295 11.0992 9.84997 11.0992H10.6778L10.8253 10.6141L10.4583 10.664C10.3875 10.664 10.1912 10.6556 10.2127 10.5907ZM10.2969 7.77247L10.1108 8.10559C10.071 8.17836 10.0351 8.22352 10.0029 8.24433C9.97443 8.26188 9.91812 8.26922 9.83655 8.26922H9.73945L9.60968 8.69538H9.93213C10.0872 8.69538 10.2062 8.63907 10.2631 8.61091C10.3242 8.57854 10.3403 8.59704 10.3875 8.55188L10.4964 8.45843H11.5033L11.637 8.01472H10.8999L11.0286 7.77247H10.2969ZM11.7834 10.5993C11.7662 10.5748 11.7786 10.5317 11.8048 10.4419L12.08 9.53964H13.0591C13.2018 9.5376 13.3048 9.53597 13.3718 9.53121C13.4437 9.52373 13.522 9.49829 13.6073 9.45259C13.6953 9.40471 13.7404 9.35424 13.7784 9.2963C13.8209 9.23849 13.889 9.11198 13.9475 8.91693L14.2934 7.77515L13.2774 7.781C13.2774 7.781 12.9646 7.8267 12.8269 7.87716C12.6879 7.93348 12.4893 8.09072 12.4893 8.09072L12.581 7.77773H11.9534L11.0748 10.664C11.0436 10.7761 11.0227 10.8574 11.0179 10.9063C11.0163 10.9589 11.0849 11.011 11.1294 11.0503C11.182 11.0896 11.2598 11.0832 11.3343 11.0896C11.4128 11.0955 11.5243 11.0991 11.6782 11.0991H12.1605L12.3086 10.604L11.8768 10.6444C11.8307 10.6444 11.7973 10.6199 11.7834 10.5993ZM12.2576 8.93026H13.2859L13.2206 9.1332C13.2114 9.13796 13.1894 9.12314 13.0848 9.13538H12.1943L12.2576 8.93026ZM12.4636 8.2496H13.5006L13.426 8.49403C13.426 8.49403 12.9373 8.48927 12.859 8.50355C12.5146 8.56259 12.3134 8.74486 12.3134 8.74486L12.4636 8.2496ZM13.2436 9.81282C13.2351 9.84315 13.2216 9.86165 13.2028 9.87552C13.1819 9.88885 13.1482 9.89361 13.0978 9.89361H12.9512L12.9599 9.64646H12.3504L12.3257 10.8548C12.3247 10.9419 12.3332 10.9924 12.3976 11.0328C12.462 11.0833 12.6605 11.0897 12.9276 11.0897H13.3095L13.4474 10.6374L13.1149 10.6555L13.0044 10.6619C12.9893 10.6555 12.9748 10.6496 12.9588 10.6337C12.9448 10.62 12.9211 10.6284 12.925 10.5412L12.9276 10.2315L13.2763 10.2172C13.4646 10.2172 13.545 10.1565 13.6137 10.0987C13.6792 10.0434 13.7006 9.97972 13.7254 9.89361L13.7839 9.61939H13.3047L13.2436 9.81282Z" fill="#FEFEFE"></path></g><defs><clipPath id="clip0_248_372"><rect width="22.6154" height="14" fill="white"></rect></clipPath></defs></svg>