<svg width="28" height="34" viewBox="0 0 28 34" fill="none" xmlns="http://www.w3.org/2000/svg">
    <path d="M0 7.40088L4.02631 14.7613V19.2473L0.00621663 26.595L0 7.40088Z" fill="#5B57A2"></path>
    <path d="M15.4565 12.0825L19.228 9.71829L26.947 9.71191L15.4565 16.9129V12.0825Z" fill="#D90751"></path>
    <path d="M15.436 7.3583L15.4567 17.0999L11.4221 14.5657V0L15.436 7.3583Z" fill="#FAB718"></path>
    <path d="M26.9471 9.71186L19.2281 9.71823L15.436 7.3583L11.4221 0L26.9471 9.71186Z" fill="#ED6F26"></path>
    <path d="M15.4567 26.6353V21.9069L11.4221 19.4194L11.4242 34L15.4567 26.6353Z" fill="#63B22F"></path>
    <path d="M19.2198 24.2924L4.02631 14.7613L0 7.40088L26.9325 24.2839L19.2198 24.2924Z" fill="#1487C9"></path>
    <path d="M11.4241 34L15.4566 26.6354L19.2197 24.2924L26.9325 24.2839L11.4241 34Z" fill="#017F36"></path>
    <path d="M0.00610352 26.5949L11.453 19.4194L7.6049 17.0063L4.02619 19.2472L0.00610352 26.5949Z"
          fill="#984995"></path>
</svg>